<mxfile host="app.diagrams.net" modified="2024-04-02T05:19:59.440Z" agent="Mozilla/5.0 (Windows NT 10.0; Win64; x64; rv:124.0) Gecko/20100101 Firefox/124.0" etag="CAH30iA5V0MYmHoptZft" version="23.1.1" type="device">
  <diagram name="Lapa-1" id="736qHdl4fiUrDf1LKOUC">
    <mxGraphModel dx="728" dy="421" grid="1" gridSize="10" guides="1" tooltips="1" connect="1" arrows="1" fold="1" page="1" pageScale="1" pageWidth="850" pageHeight="1100" math="0" shadow="0">
      <root>
        <mxCell id="0" />
        <mxCell id="1" parent="0" />
        <mxCell id="jcKud-iaB9ZNW6vFdaJ_-1" value="Datubāze" style="rounded=0;whiteSpace=wrap;html=1;verticalAlign=top;" vertex="1" parent="1">
          <mxGeometry x="40" y="40" width="760" height="480" as="geometry" />
        </mxCell>
        <mxCell id="jcKud-iaB9ZNW6vFdaJ_-2" value="Tabula 1 (Lietotajs)" style="rounded=0;whiteSpace=wrap;html=1;verticalAlign=top;" vertex="1" parent="1">
          <mxGeometry x="60" y="90" width="220" height="280" as="geometry" />
        </mxCell>
        <mxCell id="jcKud-iaB9ZNW6vFdaJ_-3" value="Tabula 3 (Pirkumi)" style="rounded=0;whiteSpace=wrap;html=1;verticalAlign=top;" vertex="1" parent="1">
          <mxGeometry x="550" y="90" width="220" height="280" as="geometry" />
        </mxCell>
        <mxCell id="jcKud-iaB9ZNW6vFdaJ_-4" value="Tabula 2 (Prece)" style="rounded=0;whiteSpace=wrap;html=1;verticalAlign=top;" vertex="1" parent="1">
          <mxGeometry x="300" y="90" width="230" height="280" as="geometry" />
        </mxCell>
        <mxCell id="jcKud-iaB9ZNW6vFdaJ_-5" value="id | lietotājvārds | parole | vārds | vecums" style="rounded=0;whiteSpace=wrap;html=1;" vertex="1" parent="1">
          <mxGeometry x="60" y="130" width="220" height="30" as="geometry" />
        </mxCell>
        <mxCell id="jcKud-iaB9ZNW6vFdaJ_-6" value="id | nosaukums | cena" style="rounded=0;whiteSpace=wrap;html=1;" vertex="1" parent="1">
          <mxGeometry x="300" y="130" width="230" height="30" as="geometry" />
        </mxCell>
        <mxCell id="jcKud-iaB9ZNW6vFdaJ_-7" value="id | lietotajs | prece" style="rounded=0;whiteSpace=wrap;html=1;" vertex="1" parent="1">
          <mxGeometry x="550" y="130" width="220" height="30" as="geometry" />
        </mxCell>
        <mxCell id="jcKud-iaB9ZNW6vFdaJ_-8" value="1 | lietotajs | *** | v1 | 20" style="rounded=0;whiteSpace=wrap;html=1;" vertex="1" parent="1">
          <mxGeometry x="60" y="170" width="220" height="30" as="geometry" />
        </mxCell>
        <mxCell id="jcKud-iaB9ZNW6vFdaJ_-9" value="2 | lietotajs2 | *** | v2 | 20" style="rounded=0;whiteSpace=wrap;html=1;" vertex="1" parent="1">
          <mxGeometry x="60" y="200" width="220" height="30" as="geometry" />
        </mxCell>
        <mxCell id="jcKud-iaB9ZNW6vFdaJ_-10" value="Lietotajs" style="swimlane;fontStyle=1;align=center;verticalAlign=top;childLayout=stackLayout;horizontal=1;startSize=26;horizontalStack=0;resizeParent=1;resizeParentMax=0;resizeLast=0;collapsible=1;marginBottom=0;whiteSpace=wrap;html=1;" vertex="1" parent="1">
          <mxGeometry x="60" y="390" width="220" height="104" as="geometry" />
        </mxCell>
        <mxCell id="jcKud-iaB9ZNW6vFdaJ_-11" value="+ id: int" style="text;strokeColor=none;fillColor=none;align=left;verticalAlign=top;spacingLeft=4;spacingRight=4;overflow=hidden;rotatable=0;points=[[0,0.5],[1,0.5]];portConstraint=eastwest;whiteSpace=wrap;html=1;" vertex="1" parent="jcKud-iaB9ZNW6vFdaJ_-10">
          <mxGeometry y="26" width="220" height="26" as="geometry" />
        </mxCell>
        <mxCell id="jcKud-iaB9ZNW6vFdaJ_-14" value="+ lietotājvārds: str" style="text;strokeColor=none;fillColor=none;align=left;verticalAlign=top;spacingLeft=4;spacingRight=4;overflow=hidden;rotatable=0;points=[[0,0.5],[1,0.5]];portConstraint=eastwest;whiteSpace=wrap;html=1;" vertex="1" parent="jcKud-iaB9ZNW6vFdaJ_-10">
          <mxGeometry y="52" width="220" height="26" as="geometry" />
        </mxCell>
        <mxCell id="jcKud-iaB9ZNW6vFdaJ_-15" value="..." style="text;strokeColor=none;fillColor=none;align=left;verticalAlign=top;spacingLeft=4;spacingRight=4;overflow=hidden;rotatable=0;points=[[0,0.5],[1,0.5]];portConstraint=eastwest;whiteSpace=wrap;html=1;" vertex="1" parent="jcKud-iaB9ZNW6vFdaJ_-10">
          <mxGeometry y="78" width="220" height="26" as="geometry" />
        </mxCell>
      </root>
    </mxGraphModel>
  </diagram>
</mxfile>
